<svg version="1.1" xmlns="http://www.w3.org/2000/svg" xmlns:xlink="http://www.w3.org/1999/xlink" width="289.44255" height="107.08112" viewBox="0,0,289.44255,107.08112"><g transform="translate(-54.53058,-125.23657)"><g data-paper-data="{&quot;isPaintingLayer&quot;:true}" fill-rule="nonzero" stroke-linecap="butt" stroke-linejoin="miter" stroke-miterlimit="10" stroke-dasharray="" stroke-dashoffset="0" style="mix-blend-mode: normal"><g fill="#ffffff"><path d="M55.28058,142.74548c0,-9.25509 6.58729,-16.75891 14.71197,-16.75891h258.51861c8.12467,0 14.71197,7.5038 14.71197,16.75892v72.06328c0,9.25509 -6.58729,16.75892 -14.71197,16.75892h-258.51861c-8.12467,0 -14.71197,-7.5038 -14.71197,-16.75891zM161.41891,170.1534c-1.85188,-0.99431 -4.957,-0.8427 -6.73671,-1.03333c-13.33739,-1.42865 -26.71882,-0.8342 -40.02273,-0.15724c-1.66029,0.08447 -3.35711,1.61483 -5.01648,1.67308c-7.54328,0.26477 -18.50815,-5.59132 -19.62513,16.11449c-0.31126,6.0486 2.0714,19.59162 4.53064,21.21074c7.37443,4.8552 11.51856,0.10973 17.33729,-0.07703c10.57641,-0.33946 20.60091,1.70473 31.20781,0.83653c0.31825,0 0.63065,-0.0537 0.93536,-0.15712c0.40024,-0.10857 0.74677,-0.26625 1.05071,-0.47392c0.00754,-0.00273 0.01507,-0.00549 0.02259,-0.00828c1.4479,1.91282 3.54445,2.32591 6.10325,0.96441c3.55099,-1.88945 7.3206,0.08291 10.97402,-0.32508c0.28797,0 0.57116,-0.04397 0.84819,-0.12896c0.89104,1.14436 1.93321,1.80202 3.04689,1.80202v0c12.26802,0 24.53808,0.47736 36.80416,0.02255c0.82466,1.00312 1.77197,1.59526 2.78161,1.64685c0.04881,0.00086 0.09688,0.00201 0.14411,0.00368c13.67617,0.48382 27.7614,6.73468 41.04177,-0.21382c0.9525,0.55427 1.68684,0.55427 1.68684,0.55427h0.8879c1.16839,-0.0145 2.33679,-0.02901 3.50517,-0.0435c8.16966,2.92429 17.06714,0.99697 25.35149,0.99697c7.82454,0 15.83971,-1.25779 23.64445,-0.01954c2.76985,0.43945 5.54246,0.9657 8.31985,0.973c1.53373,0.00404 3.07857,-0.49513 4.60098,-0.09566c1.5707,0.41213 3.13974,0.99774 4.72195,1.04912c2.46718,-0.04207 4.93659,-0.40652 7.38563,-1.04912c3.02295,-0.7932 5.22349,1.30702 8.29417,-2.36861c4.73004,-5.66191 7.07276,-19.86477 3.83021,-30.05419c-1.02868,-3.23254 -2.79258,-5.23223 -4.46872,-6.77221c-1.98123,-1.82027 -4.29117,0.16496 -6.32381,-0.4522c-7.18297,-2.18091 -14.75576,-1.04912 -22.03594,-1.04912c-11.70641,0 -23.33168,-4.02866 -35.02553,-5.67723c-4.98756,-0.70314 -10.14444,-0.0435 -15.14067,-0.0435c-9.91485,0 -19.82971,0 -29.74456,0c0,0 -2.14922,0 -3.86321,2.77526c-0.24325,-1.05421 -0.51908,-2.0242 -0.8416,-2.52743c-2.66048,-4.1512 -4.70369,0.04805 -7.2863,0.07703c-3.62566,0.04068 -7.25171,-0.09765 -10.87714,0c-5.13862,0.13841 -10.20122,3.70714 -15.39458,3.34614c-7.39664,-0.51414 -18.56131,-6.66785 -25.28769,-0.1625c-0.43461,-0.50908 -0.89274,-0.9023 -1.36622,-1.15652z" data-paper-data="{&quot;index&quot;:null}" stroke="#000000" stroke-width="1.5"/><path d="M86.70175,218.48051v-56.91883h253.56531v56.91883z" stroke="none" stroke-width="0"/></g><path d="M115.20275,144.00594v8.65806c0,7.17951 -4.84795,13.87564 -11.37348,15.51057c-6.52553,-1.63493 -11.37347,-8.33107 -11.37347,-15.51057v-8.65806l11.37347,-4.26505zM112.35939,145.98209l-8.53011,-3.19879l-8.5301,3.19879v6.68192c0,5.70095 3.6253,10.94697 8.5301,12.55347c4.90481,-1.6065 8.53011,-6.86674 8.53011,-12.55347z" fill="#000000" stroke="none" stroke-width="1"/><text transform="translate(123.34866,162.1708) scale(0.5,0.5)" font-size="40" xml:space="preserve" fill="#000000" fill-rule="nonzero" stroke="none" stroke-width="1" stroke-linecap="butt" stroke-linejoin="miter" stroke-miterlimit="10" stroke-dasharray="" stroke-dashoffset="0" font-family="Sans Serif" font-weight="normal" text-anchor="start" style="mix-blend-mode: normal"><tspan x="0" dy="0">No Trackers Found</tspan></text><g><path d="M268.84109,207.42501v-17.15433h45.07558v17.15433z" fill="#ffffff" stroke="#c2c2c2" stroke-width="2.5"/><path d="M267.96523,208.29754v-18.92455h22.60907v18.92455z" fill="#4db6ff" stroke="none" stroke-width="0"/></g><text transform="translate(77.02853,206.66873) scale(0.46134,0.46134)" font-size="40" xml:space="preserve" fill="#000000" fill-rule="nonzero" stroke="none" stroke-width="1" stroke-linecap="butt" stroke-linejoin="miter" stroke-miterlimit="10" stroke-dasharray="" stroke-dashoffset="0" font-family="Sans Serif" font-weight="normal" text-anchor="start" style="mix-blend-mode: normal"><tspan x="0" dy="0">Protection Activated</tspan></text></g></g></svg>