<svg version="1.1" xmlns="http://www.w3.org/2000/svg" xmlns:xlink="http://www.w3.org/1999/xlink" width="505" height="85.17067" viewBox="0,0,505,85.17067"><g transform="translate(9.694,28.39403)"><g data-paper-data="{&quot;isPaintingLayer&quot;:true}" fill-rule="nonzero" stroke-linecap="butt" stroke-linejoin="miter" stroke-miterlimit="10" stroke-dasharray="" stroke-dashoffset="0" style="mix-blend-mode: normal"><path d="M51.47926,46.18234v-42.91849h421.71873v42.91849z" fill="none" stroke="#ffffff" stroke-width="19"/><path d="M-1.40434,-12.78771c0,-7.24846 11.07999,-13.12535 24.74592,-13.12535h434.83509c13.66592,0 24.74592,5.87687 24.74592,13.12536v56.43898c0,7.24846 -11.07999,13.12536 -24.74592,13.12536h-434.83509c-13.66592,0 -24.74592,-5.87687 -24.74592,-13.12535zM177.12314,8.6778c-3.11491,-0.77873 -8.3378,-0.65999 -11.33132,-0.80929c-22.43384,-1.1189 -44.94175,-0.65333 -67.31929,-0.12315c-2.79266,0.06616 -5.64674,1.26471 -8.43785,1.31033c-12.68799,0.20737 -31.1312,-4.37904 -33.00999,12.62065c-0.52355,4.73718 3.48415,15.34389 7.62065,16.61196c12.40399,3.80253 19.37452,0.08594 29.16178,-0.06033c17.7898,-0.26586 34.65127,1.33512 52.49235,0.65516c0.5353,0 1.06077,-0.04206 1.57329,-0.12305c0.67321,-0.08503 1.25609,-0.20852 1.76731,-0.37117c0.01268,-0.00214 0.02535,-0.0043 0.038,-0.00649c2.4354,1.4981 5.96186,1.82162 10.26582,0.75531c5.97287,-1.47979 12.31344,0.06493 18.45858,-0.2546c0.48437,0 0.9607,-0.03444 1.42667,-0.101c1.49875,0.89625 3.25171,1.41132 5.12496,1.41132v0c20.63513,0 41.2737,0.37386 61.90556,0.01766c1.3871,0.78563 2.9805,1.24939 4.67873,1.28979c0.08209,0.00067 0.16296,0.00157 0.24239,0.00288c23.00368,0.37892 46.6954,5.27451 69.03334,-0.16746c1.60214,0.4341 2.83732,0.4341 2.83732,0.4341h1.49347c1.96526,-0.01136 3.93053,-0.02272 5.89579,-0.03407c13.74158,2.29026 28.70737,0.78081 42.64187,0.78081c13.16109,0 26.64282,-0.98508 39.77059,-0.0153c4.65895,0.34417 9.32256,0.75632 13.9942,0.76204c2.57977,0.00316 5.17823,-0.38778 7.73897,-0.07492c2.64196,0.32278 5.28113,0.78142 7.94243,0.82166c4.14986,-0.03295 8.30347,-0.31838 12.42283,-0.82166c5.08468,-0.62122 8.78605,1.02364 13.95101,-1.85506c7.95606,-4.43433 11.89658,-15.55781 6.44251,-23.53803c-1.73028,-2.53168 -4.69719,-4.09781 -7.51651,-5.3039c-3.33248,-1.42561 -7.21787,0.12919 -10.63681,-0.35416c-12.08195,-1.70806 -24.81958,-0.82166 -37.06503,-0.82166c-19.69048,0 -39.24449,-3.15519 -58.91386,-4.44633c-8.38922,-0.55069 -17.06321,-0.03407 -25.467,-0.03407c-16.67704,0 -33.35409,0 -50.03113,0c0,0 -3.61504,0 -6.49802,2.17355c-0.40916,-0.82564 -0.8731,-1.58532 -1.41559,-1.97945c-4.475,-3.25116 -7.91173,0.03763 -12.25574,0.06033c-6.09846,0.03186 -12.19757,-0.07648 -18.29564,0c-8.64329,0.1084 -17.15872,2.90338 -25.89409,2.62065c-12.44134,-0.40267 -31.22062,-5.22217 -42.53456,-0.12727c-0.73102,-0.3987 -1.50161,-0.70667 -2.29801,-0.90577z" data-paper-data="{&quot;index&quot;:null}" fill="#ffffff" stroke="none" stroke-width="1"/><path d="M59.37691,30.83761c0,-4.74783 0,-10.49303 0,-13.26737c0,-3.11009 2.92447,-7.46029 7.06741,-7.46029c28.0549,0 328.04229,0 370.18925,0c3.19577,0 4.90912,4.52099 4.90912,9.54917c0,4.50159 0,9.40968 0,11.84408c0,2.91583 -3.34264,6.84839 -9.39859,6.84839c-55.46093,0 -338.48889,0 -365.69979,0c-4.14293,0 -7.06741,-3.37867 -7.06741,-7.51397z" fill="none" stroke="#ffffff" stroke-width="7"/><path d="M451.42259,33.21669v-30h15v30z" fill="none" stroke="#ffffff" stroke-width="19"/><path d="M-9.694,55.60597v-84h505v84z" fill="#ffffff" stroke="none" stroke-width="0"/><path d="M59.02507,30.901c0,-4.04408 0,-8.9377 0,-11.30081c0,-2.6491 2.89056,-6.35449 6.98545,-6.35449c27.72954,0 324.23787,0 365.89604,0c3.15871,0 4.85219,3.85086 4.85219,8.13374c0,3.83434 0,8.01493 0,10.08849c0,2.48363 -3.30387,5.83329 -9.28959,5.83329c-54.81774,0 -334.56332,0 -361.45864,0c-4.09488,0 -6.98545,-2.87787 -6.98545,-6.40021z" fill="#a1a2a1" stroke="none" stroke-width="0"/><path d="M57.306,39.60597v-28h380v28z" fill="#a1a2a1" stroke="none" stroke-width="0"/></g></g></svg>